<svg width="82" height="30" viewBox="0 0 82 30" fill="none" xmlns="http://www.w3.org/2000/svg">
<path d="M40.1084 0.350586L37.875 10.1787L37.8057 10.4834H44.1035L44.1484 10.29L46.4463 0.350586H55.9824L52.1504 16.9121L52.0791 17.2188H54.1416L51.2139 29.75H41.6973L44.4688 17.8252L44.54 17.5186H38.2217L38.1758 17.7109L35.3584 29.75H25.7812L28.7324 17.0254L28.8037 16.7188H26.7812L30.5303 0.350586H40.1084ZM10.2412 0.25L11.4434 14.4316L11.5107 15.2324L11.9092 14.5342C13.2627 12.1619 14.5505 9.73481 15.834 7.31445C17.0953 4.93603 18.3537 2.56478 19.667 0.25H29.3027L20.3232 16.207L20.1133 16.5791H21.916L14.5098 29.75H5.20996L3.8125 16.3037L3.78906 16.0791H1.94727L0.27832 0.25H10.2412ZM72.0537 0.390625C75.6164 0.390625 78.583 1.31344 80.2559 3.18262C81.9113 5.03232 82.3619 7.88246 80.7324 11.8965C79.9039 13.8857 78.8004 15.4761 77.5439 16.7109L77.1084 17.1396H78.8926C75.859 19.7605 71.7741 20.6768 67.0479 20.6768H66.8496L66.8047 20.8701L64.7676 29.6504H55.3096L58.2422 16.9453L58.3135 16.6387H56.4521C57.7158 11.2229 58.9766 5.80594 60.2402 0.390625H72.0537ZM68.0459 7.50293C67.8361 8.48051 67.6106 9.46821 67.3828 10.4678C67.1551 11.4669 66.9247 12.4781 66.7041 13.499L66.6348 13.8184L66.9619 13.8008C69.5411 13.6662 71.36 12.1109 71.7939 10.5215C72.013 9.71921 71.8776 8.89847 71.2842 8.28223C70.6978 7.6733 69.7041 7.3057 68.29 7.30566H68.0879L68.0459 7.50293Z" fill="#202630" stroke="#EEEEEE" stroke-width="0.5"/>
</svg>
