<svg width="82" height="30" viewBox="0 0 82 30" fill="none" xmlns="http://www.w3.org/2000/svg">
<path d="M22.3428 16.3293L14.655 30H4.98511L3.56368 16.3293H1.72177L0 0H10.4708L11.6921 14.4106C14.3948 9.67366 16.8373 4.71684 19.5201 0H29.7304L20.5411 16.3293H22.3428ZM54.456 16.9689L51.4128 30H41.3826L44.2254 17.7681H38.4195L35.5565 30H25.4661L28.4892 16.9689H26.4671L30.331 0.100286H40.4214L38.119 10.2336H43.9049L46.2473 0.100286H56.2976L52.3936 16.9689H54.456ZM56.1374 16.8891C57.4387 11.3127 58.7401 5.71633 60.0414 0.140197H72.0539C79.2412 0.140197 84.2663 3.85776 80.963 11.9924C80.1222 14.0112 79.001 15.6301 77.7197 16.8893H79.5415C76.3983 19.9073 72.0538 20.9266 67.0482 20.9266L64.966 29.9007H54.9958L57.9989 16.8891H56.1374ZM68.2899 7.55526C67.8694 9.51402 67.3889 11.5127 66.9485 13.5514C71.9336 13.2915 73.7955 7.55526 68.2899 7.55526Z" fill="#EAECEF"/>
</svg>
